<svg id="visual" viewBox="0 0 960 540" width="960" height="540" xmlns="http://www.w3.org/2000/svg" xmlns:xlink="http://www.w3.org/1999/xlink" version="1.1"><rect x="0" y="0" width="960" height="540" fill="#0d1f2d"></rect><defs><linearGradient id="grad1_0" x1="43.8%" y1="100%" x2="100%" y2="0%"><stop offset="14.444444444444446%" stop-color="#0d1f2d" stop-opacity="1"></stop><stop offset="85.55555555555554%" stop-color="#0d1f2d" stop-opacity="1"></stop></linearGradient></defs><defs><linearGradient id="grad2_0" x1="0%" y1="100%" x2="56.3%" y2="0%"><stop offset="14.444444444444446%" stop-color="#0d1f2d" stop-opacity="1"></stop><stop offset="85.55555555555554%" stop-color="#0d1f2d" stop-opacity="1"></stop></linearGradient></defs><g transform="translate(960, 540)"><path d="M-405 0C-400.7 -81.7 -396.3 -163.3 -350.7 -202.5C-305.2 -241.7 -218.3 -238.3 -153 -265C-87.7 -291.7 -43.8 -348.3 0 -405L0 0Z" fill="#00b9ff"></path></g><g transform="translate(0, 0)"><path d="M405 0C398.1 77.2 391.1 154.3 350.7 202.5C310.4 250.7 236.5 269.9 172.5 298.8C108.5 327.7 54.2 366.3 0 405L0 0Z" fill="#00b9ff"></path></g></svg>